# xmcd CD database file
#
# Track frame offsets:
#	150
#	22936
#	49961
#	89452
#	143087
#	149978
#	156390
#	164200
#	169603
#	174459
#	184064
#	213750
#
# Disc length: 3137 seconds
#
# Revision: 1
# Processed by: cddbd v1.5.2PL0 Copyright (c) Steve Scherf et al.
# Submitted via: CDex 1.70beta2
#
DISCID=af0c3f0c
DTITLE=Soft Machine - Orange Skin Food Cd 2
DYEAR=2005
DGENRE=Jazz
TTITLE0=Facelift
TTITLE1=Moon In June
TTITLE2=Out-Bloody-Rageous
TTITLE3=Facelift
TTITLE4=Fire Engine Passing With Bells Clanging
TTITLE5=Pig
TTITLE6=Orange Skin Food
TTITLE7=A Door Opens And Closes
TTITLE8=10_30 Returns To The Bedroom
TTITLE9=Pigling Bland
TTITLE10=10_30 Returns To The Bedroom
TTITLE11=I Should 've Known
EXTD=YEAR: 2005
EXTT0=
EXTT1=
EXTT2=
EXTT3=
EXTT4=
EXTT5=
EXTT6=
EXTT7=
EXTT8=
EXTT9=
EXTT10=
EXTT11=
PLAYORDER=
